<svg width="27" height="27" viewBox="0 0 27 27" fill="none" xmlns="http://www.w3.org/2000/svg">
<path d="M3 13.5C3 19.8354 6.21717 25.1515 10.5563 26.6062C11.9761 27.0822 13.3915 26.164 13.8926 24.7529C14.9412 21.7999 16.1075 16.6233 12.9522 13.5C10.97 11.5378 10.6933 8.76528 11.0216 6.2428C11.4082 3.27285 9.23239 0.473905 7.10126 2.57827C4.61563 5.03267 3 9.0104 3 13.5Z" fill="#FF8762"/>
<path d="M24 13.5C24 7.16461 20.7828 1.8485 16.4437 0.393779C15.0239 -0.0822078 13.6085 0.836039 13.1074 2.24713C12.0588 5.20006 10.8925 10.3767 14.0478 13.5C16.03 15.4622 16.3067 18.2347 15.9784 20.7572C15.5918 23.7272 17.7676 26.5261 19.8987 24.4217C22.3844 21.9673 24 17.9896 24 13.5Z" fill="#FF8762"/>
</svg>
